<?xml version="1.0" encoding="utf-8"?>
<!-- Generator: Adobe Illustrator 27.2.0, SVG Export Plug-In . SVG Version: 6.00 Build 0)  -->
<svg version="1.1" id="svg" xmlns="http://www.w3.org/2000/svg" xmlns:xlink="http://www.w3.org/1999/xlink" x="0px" y="0px"
	 viewBox="0 0 1857.5 512" style="enable-background:new 0 0 1857.5 512;" xml:space="preserve">
<style type="text/css">
	.st0{display:none;fill:#2A4155;}
	.st1{fill:#9B3C29;}
	.st2{fill:#7C2B1E;}
	.st3{fill:#F7F1D8;}
	.st4{fill:#333333;}
	.st5{display:none;}
	.st6{display:inline;fill:#F8F8E0;}
	.st7{display:inline;fill:#FBF9E0;}
	.st8{enable-background:new    ;}
</style>
<rect id="background" class="st0" width="1857.5" height="512"/>
<path class="st1" d="M363.6,168.6c-1.8-3.9-4-7.6-6.2-11.3c-1.1-2.9-0.8-4.3,0.3-7.2c1.7-3.3,3.9-3.3,6-7.5
	c5.4-18.3-1-27.9-6.6-39.9c-1.1-2-2.2-4.1-3.3-6.1c-0.9-2.5-0.9-2.5-0.1-5c1.9-2.8,4.7-4.5,7.1-6.8c6.2-6.2,8.2-10.9,9.3-19.8
	c0.3-5.4-0.5-9.7-5.2-13.2c-8.3-5.5-18-8.6-27.8-6.5c-9.4,2.8-18.3,8.9-21.5,17.7c-0.4,1.2-0.4,2.5,0,4c-1.2-0.2-16.8-3.2-18.1-3.4
	c-9.6-1.7-19.4-2.2-29.1-2.6l-48,55.5c-47.6,68.9-22.6,114.3-22.5,114.9c4.9,21.8,15.5,41.7,30.5,57.6c-1,0-1.9,0-2.8,0
	c48.8,0.2,122.6,0.4,138.2,0.5c-0.4-1.3-12-42-12-44.8c-0.7,0.3-1.4,0.5-2.1,0.8c-15.8,5.6-30.4,6-46-0.8
	c-9-5.1-15.9-13.7-20.5-23.1c-3-10.5,1.5-18.2,6-27.4c7.7-13.4,21.7-25.3,36.1-30.3c6-0.8,9.7-0.8,14.8,2.7c3.2,3.5,3.2,3.5,5.4,6.5
	c3.6,4.5,6.2,10.1,10.4,13.9c3.5-1.9,8.3-1.7,13.1-1.6c1.3,0.1,2.5,0.2,3.6,0.5C369.8,182.3,366.9,176.1,363.6,168.6z M297.5,150.7
	c-0.4,1.8-3.2,1.9-6,1.2c-3.5-1.2-8.2-2.2-8.4-6.5c0.6-5,1.2-6.4,4.6-7.8c4.2-0.5,5.8,0.5,9,2.4
	C299.2,141.5,298.3,146.7,297.5,150.7z"/>
<path class="st2" d="M163.7,380c0-8.2-0.1-16.4-0.1-24.8c0-10,0-10,0-14.7c0-3.3,0-6.5,0-9.8c0-5,0-9.9,0-14.9c0-1.5,0-2.9,0-4.4
	c0-1.3,0-2.7,0-4c0-1.2,0-2.3,0-3.5c0.7-5.4,3.1-8.5,6.8-12.3c4-2.6,6.5-2.7,11.2-2.7c0,0,0.2,0,0.4,0c0.1,0,0.3,0,0.5,0
	c0.1,0,0.3,0,0.5,0c0.1,0,0.2,0,0.3,0c0.3,0,0.7,0,1.1,0c0.1,0,0.2,0,0.3,0c0.3,0,0.6,0,0.9,0c1.4,0,3.2,0,5.2,0c0.3,0,0.6,0,0.9,0
	c7.3,0,18.1,0.1,30.8,0.1c0.9,0,1.8,0,2.7,0c1.1,0,2.2,0,3.3,0c-15-15.9-25.7-35.8-30.5-57.6c-0.1-0.6-25.1-46,22.5-114.9l48-55.5
	c-1.3-0.1-2.5-0.1-3.8-0.2c-0.2-0.8,0.8-3.4,0.7-6.9c-0.6-7.7-6.3-11.5-12.3-15.2c-8.6-4.4-17.8-4.8-27.1-2.1
	c-3.7,1.2-8.8,4.4-11.6,6.5c-4.2,3.4-9.9,10.5-11.2,17.6c-1.6,9.7-0.8,20.9,1.6,30.4c-1.1,0.6-3,1.8-4.1,2.5
	c-4.7,3.3-6.9,8.3-12.9,17c-5.7,8.2-61.9,74.9-85.7,124.1c-0.2,0.4-0.4,0.9-0.6,1.4c-0.1,0.2-0.1,0.3-0.2,0.5
	c-0.1,0.3-0.3,0.7-0.4,1c-0.1,0.2-0.2,0.5-0.2,0.7c-0.1,0.3-0.2,0.7-0.4,1c-0.1,0.3-0.2,0.5-0.3,0.8c-0.1,0.4-0.2,0.7-0.3,1.1
	c-0.1,0.3-0.2,0.6-0.3,0.9c-0.1,0.4-0.2,0.8-0.3,1.2c-0.1,0.3-0.2,0.6-0.3,1c-0.1,0.4-0.2,0.8-0.3,1.2c-0.1,0.3-0.2,0.7-0.3,1
	c-0.1,0.4-0.2,0.9-0.3,1.3c-0.1,0.4-0.2,0.7-0.3,1.1c-0.1,0.4-0.2,0.9-0.3,1.4c-0.1,0.4-0.2,0.8-0.3,1.2c-0.1,0.5-0.2,1-0.3,1.4
	c-0.1,0.4-0.2,0.8-0.3,1.2c-0.1,0.5-0.2,1-0.3,1.5c-0.1,0.4-0.2,0.8-0.3,1.2c-0.1,0.5-0.2,1.1-0.3,1.6c-0.1,0.4-0.2,0.9-0.3,1.3
	c-0.1,0.5-0.2,1.1-0.3,1.7c-0.1,0.4-0.2,0.9-0.2,1.3c-0.1,0.6-0.2,1.2-0.3,1.8c-0.1,0.4-0.2,0.9-0.2,1.3c-0.1,0.6-0.2,1.3-0.3,1.9
	c-0.1,0.4-0.1,0.8-0.2,1.2c-0.1,0.7-0.2,1.4-0.4,2.2c-0.1,0.4-0.1,0.7-0.2,1.1c-0.1,0.9-0.3,1.7-0.4,2.6c0,0.2-0.1,0.5-0.1,0.7
	c-0.4,2.3-0.7,4.6-1.1,7c0,0.2-0.1,0.4-0.1,0.5c-0.1,1-0.3,2-0.4,3c0,0.3-0.1,0.7-0.1,1c-0.1,0.9-0.2,1.7-0.4,2.6
	c-0.1,0.4-0.1,0.8-0.2,1.2c-0.1,0.8-0.2,1.7-0.3,2.5c-0.1,0.4-0.1,0.8-0.2,1.2c-0.1,0.8-0.2,1.7-0.3,2.5c-0.1,0.4-0.1,0.8-0.2,1.2
	c-0.1,0.8-0.2,1.7-0.3,2.5c-0.1,0.4-0.1,0.9-0.2,1.3c-0.1,0.8-0.2,1.7-0.3,2.5c-0.1,0.4-0.1,0.9-0.2,1.3c-0.1,0.8-0.2,1.7-0.3,2.5
	c-0.1,0.4-0.1,0.9-0.2,1.3c-0.1,0.9-0.2,1.7-0.3,2.6c0,0.4-0.1,0.8-0.1,1.2c-0.1,0.9-0.2,1.8-0.3,2.7c0,0.4-0.1,0.8-0.1,1.1
	c-0.1,0.9-0.2,1.9-0.3,2.8c0,0.3-0.1,0.7-0.1,1c-0.1,1-0.2,1.9-0.3,2.9c0,0.3-0.1,0.6-0.1,0.9c-0.1,1-0.2,2.1-0.3,3.1
	c0,0.3-0.1,0.5-0.1,0.8c-0.1,1.1-0.2,2.2-0.4,3.3c0,0.2,0,0.3-0.1,0.5c-0.1,1.3-0.3,2.5-0.4,3.8c-0.4,7.3-0.7,12.5-0.8,13.1
	c-0.5,2.1-0.8,4.1-1,6.1l0,0c-0.2,1.8-0.3,3.5-0.5,5.2l0,0c-0.5,8.7,0.1,16.6-1.8,26.3c-0.2,1.1-0.4,2.1-0.6,3l0,0
	c0,0.6-0.1,1.1-0.1,1.6c0,0.2,0,0.4,0,0.5c0,0.5-0.1,1-0.1,1.4c0,0.2,0,0.3,0,0.5c0,0.5-0.1,1-0.1,1.4c0,0.1,0,0.2,0,0.3
	c-0.1,1.5-0.2,2.9-0.3,4.2c0,0.2,0,0.3,0,0.5c0,0.3,0,0.6-0.1,0.9c0,0.2,0,0.4,0,0.6c0,0.3,0,0.6,0,0.8c0,0.2,0,0.4,0,0.6
	s0,0.5,0,0.7s0,0.4,0,0.7c0,0.2,0,0.4,0,0.6c0,0.3,0,0.7,0,1c0,0.1,0,0.2,0,0.4c0,0.2,0,0.4,0,0.6c0,0.1,0,0.2,0,0.3
	c0,0.2,0,0.3,0,0.5c0,0.1,0,0.2,0,0.3c0,0.1,0,0.3,0,0.4s0,0.1,0,0.2c0,0.2,0,0.3,0,0.4c1.5,16.1,40.6,48.5,66.7,51.5
	c5.4-1.7,11.8-3.6,18.2-5.6C163.8,430.5,163.8,405.6,163.7,380z"/>
<path id="eye_00000145041559089258019670000003599534106408234670_" class="st3" d="M287.7,137.6c4.2-0.5,5.8,0.5,9,2.4
	c2.5,1.5,1.6,6.7,0.8,10.7c-0.4,1.8-3.2,1.9-6,1.2c-3.5-1.2-8.2-2.2-8.4-6.5C283.7,140.4,284.3,139,287.7,137.6z"/>
<path id="outline" class="st4" d="M79,409.5c-0.6-6.9,10.2-148,23-174.8c23.8-49.2,80-115.9,85.7-124.1c6-8.7,8.2-13.7,12.9-17
	c1.1-0.7,3-1.9,4.1-2.5c-2.4-9.5-3.2-20.7-1.6-30.4c1.3-7.1,7-14.2,11.2-17.6c2.8-2.1,7.9-5.3,11.6-6.5c9.3-2.7,18.5-2.3,27.1,2.1
	c6,3.7,11.7,7.5,12.3,15.2c0.1,3.5-0.9,6.1-0.7,6.9c10.9,0.5,22.1,0.9,32.9,2.8c1.3,0.2,16.9,3.2,18.1,3.4c-0.4-1.5-0.4-2.8,0-4
	c3.2-8.8,12.1-14.9,21.5-17.7c9.8-2.1,19.5,1,27.8,6.5c4.7,3.5,5.5,7.8,5.2,13.2c-1.1,8.9-3.1,13.6-9.3,19.8c-2.4,2.3-5.2,4-7.1,6.8
	c-0.8,2.5-0.8,2.5,0.1,5c1.1,2,2.2,4.1,3.3,6.1c5.6,12,12,21.6,6.6,39.9c-2.1,4.2-4.3,4.2-6,7.5c-1.1,2.9-1.4,4.3-0.3,7.2
	c2.2,3.7,4.4,7.4,6.2,11.3c3.3,7.5,6.2,13.7,9,17.3c4.6,1.2,7.8,4.2,11.5,8.2c1.2,1.2,1.7,2.1,2.5,3.6c0.5,1.2,0.6,4.9-1.2,7.1
	c-4.1,4.2-10.1,8.7-15.6,10.8c-0.9,1-2.6,1.3-3.7,5.4c-8.2,11.6-17.5,17.8-31.1,20.6c-13.9,2.2-25.4-1.4-37-9.9
	c-5.2-4.4-6.7-7.6-8.3-13.7c0-3.4-1.1-6.3-0.7-9.9c0.8,0,1.8-0.1,2.6-0.1c0.1,0.8,0.1,2.2,0.2,3.1c1.1,7.1,4.9,14.6,10.7,19.1
	c12,8,25.1,9.2,41.1,5.3c8.3-3,16.9-9.7,20-16.8c-0.4-4.1-2-6.3-4.7-9.2c-5.8-6.1-8.1-11.4-7.9-14.5c0.7-4.3,2.5-6.7,4.9-8
	c-4.2-3.7-6.8-9.4-10.4-13.9c-2.2-3-2.2-3-5.4-6.5c-5.1-3.5-8.8-3.5-14.8-2.7c-14.4,5-28.4,16.9-36.1,30.3c-4.5,9.2-9,16.9-6,27.4
	c4.6,9.4,11.5,18,20.5,23.1c15.6,6.8,30.2,6.4,46,0.8c0.7-0.3,1.4-0.5,2.1-0.8c0,2.8,11.6,43.5,12,44.8h7
	c-1.1-5.4-11.1-41.3-12.3-45.3c-0.3-1.1,0.7-3.2,1.5-3.2c6.5-4.2,9.4-9.4,14.2-15.5c3.3-4.5,7.8-8.5,11.8-12.4
	c2.7-2.5,6.3-4,7.5-7.6c0.1-3.1,1.2-8.8-2.3-12.1c-5.5-5.1-8.3-5.5-11.8-12.2c-0.5-1-1.1-2.1-1.6-3.1c-3.9-7.4-8.1-14.8-10.4-22.9
	c0.9-0.8,8.7-13.8,8.7-21.3c0-1.6-0.6-15.9-3.8-23.8c-1.9-4-4.7-8-6.3-12.1c0.9-5.1,2-5.1,5.7-8.9c1.8-2,2.5-4,4.2-6.1
	c4.8-8.9,8.9-17.2,6.5-27.4c-3.2-9.8-8.9-15.1-17.6-20.1c-10.7-4-21.5-5.4-32.5-2.1c-8.9,3.2-18.4,6.3-23.1,15.1
	c-0.4,1.1-0.4,1.1-0.9,2.2c-8.9-1.8-17.9-4-27.1-4c-1.4,0-2.7,0.1-4.1,0.2c-2.3-9.8-8.8-14.2-16.6-19.9c-17.7-10.9-41.6-6.5-56.7,7
	c-11.4,11.3-13.7,21.2-14.1,37.1c0,1.7,0.1,6.8,0.9,9.3c1.2,4.4,4.4,5.9,2.2,8.3c-2,1.9-78.6,95.2-99.8,140.8
	c-17.3,37.2-27.3,168.3-25.9,186.8c1,13.8,53.6,53.6,60,54.8c6.4,1.2,21.2-8.5,21-9.9C122.1,460,80.5,426.1,79,409.5z"/>
<g id="laptop_circle">
	<path id="base_00000123404332465203970610000006202858914673937566_" class="st4" d="M185.6,488.7c-26.2,0.1-26.2,0.1-34.8-5.5
		c-6-5.1-6-6.9-6-14.7c102.8,0,206.9,0,312.8,0c0,10.6,0,10.6-4.8,14.7c-10.9,7.2-25.5,5.6-38.7,5.5c-2.7,0-5.4,0-8.2,0"/>
	<path id="top_00000129924111437303225330000000151109842367221134_" class="st4" d="M431.6,293.7c-5.2-4.1-9.4-4.9-15.9-4.9
		c-1.1,0.1-36,0.6-42.9,0.7c-0.7,0-1.3,0-2,0h-7c-23.6-0.1-181.4-0.6-182.2-0.6c-4.7,0-7.2,0.1-11.2,2.7c-3.7,3.8-6.1,6.9-6.8,12.3
		c0,1.2,0,2.3,0,3.5c0,1.3,0,2.7,0,4c0,1.5,0,2.9,0,4.4c0,5,0,9.9,0,14.9c0,3.3,0,6.5,0,9.8c0,4.7,0,4.7,0,14.7
		c0,8.4,0.1,16.6,0.1,24.8c0.1,26.7,0.1,52.7,0.2,78.6c92.8,0,183,0,273.1,0c0.1-26.2,0.4-138.8,0.4-140.3
		C437.5,308.9,437.9,301.2,431.6,293.7z M301,401.1c-13.9,0-25.2-11.7-25.2-26.1s11.3-26.1,25.2-26.1c13.9,0,25.2,11.7,25.2,26.1
		S314.9,401.1,301,401.1z"/>
</g>
<g id="laptop_iol_00000039827419951452041130000000205329718212903816_" class="st5">
	<path id="top" class="st6" d="M431.6,293.7c-5.2-4.1-9.4-4.9-15.9-4.9c-1.1,0.1-36,0.6-42.9,0.7c-0.7,0-1.3,0-2,0h-7
		c-23.6-0.1-181.4-0.6-182.2-0.6c-4.7,0-7.2,0.1-11.2,2.7c-3.7,3.8-6.1,6.9-6.8,12.3c0,1.2,0,2.3,0,3.5c0,1.3,0,2.7,0,4
		c0,1.5,0,2.9,0,4.4c0,5,0,9.9,0,14.9c0,3.3,0,6.5,0,9.8c0,4.7,0,4.7,0,14.7c0,8.4,0.1,16.6,0.1,24.8c0.1,26.7,0.1,52.7,0.2,78.6
		c92.8,0,183,0,273.1,0c0.1-26.2,0.4-138.8,0.4-140.3C437.5,308.9,437.9,301.2,431.6,293.7z M239.7,427.8h-27V322.2h27V427.8z
		 M297.7,427.8c-28.2,0-51.1-23.6-51.1-52.8s22.9-52.8,51.1-52.8s51.1,23.6,51.1,52.8S325.9,427.8,297.7,427.8z M394.9,427.8h-13.8
		H363h-6V322.2h24.1v78.9h13.8V427.8z"/>
	<path id="base" class="st7" d="M185.6,488.7c-26.2,0.1-26.2,0.1-34.8-5.5c-6-5.1-6-6.9-6-14.7c102.8,0,206.9,0,312.8,0
		c0,10.6,0,10.6-4.8,14.7c-10.9,7.2-25.5,5.6-38.7,5.5c-2.7,0-5.4,0-8.2,0"/>
	<ellipse id="circle" class="st6" cx="298" cy="375" rx="25.2" ry="26.1"/>
</g>
<g class="st8">
	<path class="st4" d="M631.8,47.2h45.4v218.6h-45.4V47.2z"/>
	<path class="st4" d="M826.2,271.9c-31.2,0-55.1-8.5-71.6-25.5c-22.1-20.9-33.2-50.9-33.2-90.2c0-40,11.1-70.1,33.2-90.2
		c16.5-17,40.4-25.5,71.6-25.5c31.2,0,55.1,8.5,71.6,25.5c22,20.1,33.1,50.1,33.1,90.2c0,39.3-11,69.3-33.1,90.2
		C881.3,263.4,857.4,271.9,826.2,271.9z M869.3,213.2c10.6-13.3,15.9-32.3,15.9-57c0-24.5-5.3-43.5-15.9-56.9
		c-10.6-13.4-25-20.1-43.1-20.1s-32.5,6.7-43.3,20c-10.8,13.3-16.2,32.3-16.2,57s5.4,43.6,16.2,57c10.8,13.3,25.2,20,43.3,20
		S858.6,226.5,869.3,213.2z"/>
	<path class="st4" d="M975.5,47.2h45.7v179.3h108.3v39.3h-154V47.2z"/>
	<path class="st4" d="M1259.5,47.2h45.7v179.3h108.3v39.3h-154V47.2z"/>
	<path class="st4" d="M1457.4,121.6c11.2-14.2,30.4-21.4,57.5-21.4c17.7,0,33.4,3.5,47.2,10.5c13.7,7,20.6,20.3,20.6,39.7v74.2
		c0,5.1,0.1,11.4,0.3,18.7c0.3,5.5,1.1,9.3,2.5,11.3c1.4,2,3.5,3.6,6.2,4.9v6.2h-46c-1.3-3.3-2.2-6.3-2.7-9.2
		c-0.5-2.9-0.9-6.1-1.2-9.8c-5.8,6.3-12.6,11.7-20.2,16.2c-9.1,5.2-19.4,7.9-30.8,7.9c-14.6,0-26.7-4.2-36.3-12.5
		c-9.5-8.4-14.3-20.2-14.3-35.5c0-19.9,7.7-34.3,23-43.2c8.4-4.8,20.8-8.3,37.1-10.4l14.4-1.8c7.8-1,13.4-2.2,16.8-3.7
		c6-2.6,9-6.6,9-12c0-6.6-2.3-11.2-6.9-13.7s-11.3-3.8-20.2-3.8c-10,0-17.1,2.5-21.2,7.4c-3,3.7-4.9,8.6-5.9,14.8h-40.8
		C1446.4,142.4,1450.4,130.7,1457.4,121.6z M1488.9,235.3c4,3.3,8.8,4.9,14.5,4.9c9.1,0,17.5-2.7,25.1-8
		c7.7-5.3,11.6-15.1,11.9-29.2v-15.7c-2.7,1.7-5.4,3-8.1,4.1c-2.7,1-6.5,2-11.2,2.9l-9.5,1.8c-8.9,1.6-15.3,3.5-19.1,5.8
		c-6.5,3.9-9.8,9.8-9.8,17.9C1482.8,226.9,1484.8,232.1,1488.9,235.3z"/>
	<path class="st4" d="M1717.8,270.1c-13.3,0-24.1-2.7-32.2-8c-4.8-3.2-10.1-8.7-15.7-16.6v20.3h-41.4V47.5h42.1v77.7
		c5.3-7.5,11.2-13.2,17.7-17.2c7.6-4.9,17.3-7.4,29.1-7.4c21.3,0,37.9,7.7,49.9,23c12,15.3,18,35.1,18,59.3
		c0,25.1-5.9,45.9-17.8,62.4C1755.6,261.9,1739.1,270.1,1717.8,270.1z M1740.9,187.3c0-11.5-1.5-21-4.4-28.5
		c-5.6-14.2-16-21.4-31.1-21.4c-15.3,0-25.9,7-31.6,20.9c-3,7.4-4.5,17-4.5,28.8c0,13.8,3.1,25.3,9.2,34.4
		c6.1,9.1,15.5,13.6,28,13.6c10.9,0,19.3-4.4,25.4-13.2C1737.9,213.3,1740.9,201.7,1740.9,187.3z"/>
</g>
<g class="st8">
	<path class="st4" d="M668.1,409c3.3-0.4,5.5-1.8,6.6-4.1c0.6-1.3,0.9-3.1,0.9-5.5c0-4.9-1.7-8.4-5.2-10.6
		c-3.4-2.2-8.4-3.3-14.8-3.3c-7.4,0-12.7,2-15.8,6c-1.7,2.2-2.9,5.5-3.4,9.9h-13.3c0.3-10.5,3.6-17.8,10.2-21.9s14.1-6.1,22.6-6.1
		c10,0,18,1.9,24.3,5.7c6.2,3.8,9.2,9.7,9.2,17.7v48.8c0,1.5,0.3,2.7,0.9,3.6c0.6,0.9,1.9,1.3,3.8,1.3c0.6,0,1.3,0,2.1-0.1
		c0.8-0.1,1.6-0.2,2.5-0.4v10.5c-2.2,0.6-3.9,1-5.1,1.2c-1.2,0.2-2.7,0.2-4.7,0.2c-4.9,0-8.5-1.7-10.7-5.2c-1.2-1.8-2-4.5-2.5-7.8
		c-2.9,3.8-7.1,7.1-12.5,9.9c-5.4,2.8-11.4,4.2-18,4.2c-7.9,0-14.3-2.4-19.3-7.2s-7.5-10.7-7.5-17.9c0-7.8,2.5-13.9,7.4-18.3
		s11.3-7,19.3-8L668.1,409z M638.1,447.5c3,2.4,6.6,3.6,10.7,3.6c5,0,9.9-1.2,14.6-3.5c7.9-3.8,11.9-10.1,11.9-18.9v-11.5
		c-1.7,1.1-4,2-6.7,2.8c-2.7,0.7-5.4,1.3-8.1,1.6l-8.6,1.1c-5.2,0.7-9,1.8-11.6,3.2c-4.4,2.5-6.6,6.4-6.6,11.8
		C633.6,441.9,635.1,445.1,638.1,447.5z"/>
	<path class="st4" d="M719.5,351.9h14.4v23.7h13.5v11.6h-13.5v55.3c0,3,1,4.9,3,5.9c1.1,0.6,3,0.9,5.5,0.9c0.7,0,1.4,0,2.2-0.1
		c0.8,0,1.7-0.1,2.8-0.3v11.3c-1.6,0.5-3.3,0.8-5.1,1c-1.8,0.2-3.7,0.3-5.7,0.3c-6.6,0-11.2-1.7-13.5-5.1c-2.4-3.4-3.6-7.8-3.6-13.3
		v-56.1H708v-11.6h11.5V351.9z"/>
	<path class="st4" d="M807.8,447.3l71.5-89.3H813v-13.8h86.6v13.5l-71.9,88.9h71.9v13.8h-91.8V447.3z"/>
	<path class="st4" d="M922.8,344.1h15.9v116.2h-15.9V344.1z"/>
	<path class="st4" d="M967.8,344.1h50.3c13.7,0,23.4,4.1,29.2,12.2c3.4,4.8,5.1,10.3,5.1,16.6c0,7.3-2.1,13.3-6.3,18
		c-2.2,2.5-5.3,4.7-9.3,6.8c6,2.3,10.4,4.8,13.4,7.7c5.2,5.1,7.8,12.1,7.8,21c0,7.5-2.4,14.3-7.1,20.3c-7.1,9.1-18.3,13.6-33.7,13.6
		h-49.4V344.1z M1012.2,393.2c6.7,0,11.9-0.9,15.7-2.8c5.9-2.9,8.8-8.1,8.8-15.7c0-7.6-3.1-12.7-9.4-15.3c-3.5-1.5-8.7-2.2-15.7-2.2
		h-28.4v36H1012.2z M1017.5,446.9c9.7,0,16.7-2.8,20.8-8.4c2.6-3.5,3.9-7.8,3.9-12.8c0-8.4-3.8-14.2-11.4-17.2
		c-4-1.6-9.4-2.5-16.1-2.5h-31.5v40.9H1017.5z"/>
	<path class="st4" d="M1172.6,409c3.3-0.4,5.5-1.8,6.6-4.1c0.6-1.3,0.9-3.1,0.9-5.5c0-4.9-1.7-8.4-5.2-10.6
		c-3.4-2.2-8.4-3.3-14.8-3.3c-7.4,0-12.7,2-15.8,6c-1.7,2.2-2.9,5.5-3.4,9.9h-13.3c0.3-10.5,3.6-17.8,10.2-21.9s14.1-6.1,22.6-6.1
		c10,0,18,1.9,24.3,5.7c6.2,3.8,9.2,9.7,9.2,17.7v48.8c0,1.5,0.3,2.7,0.9,3.6c0.6,0.9,1.9,1.3,3.8,1.3c0.6,0,1.3,0,2.1-0.1
		c0.8-0.1,1.6-0.2,2.5-0.4v10.5c-2.2,0.6-3.9,1-5.1,1.2c-1.2,0.2-2.7,0.2-4.7,0.2c-4.9,0-8.5-1.7-10.7-5.2c-1.2-1.8-2-4.5-2.5-7.8
		c-2.9,3.8-7.1,7.1-12.5,9.9c-5.4,2.8-11.4,4.2-18,4.2c-7.9,0-14.3-2.4-19.3-7.2c-5-4.8-7.5-10.7-7.5-17.9c0-7.8,2.5-13.9,7.4-18.3
		c4.9-4.3,11.3-7,19.3-8L1172.6,409z M1142.6,447.5c3,2.4,6.6,3.6,10.7,3.6c5,0,9.9-1.2,14.6-3.5c7.9-3.8,11.9-10.1,11.9-18.9v-11.5
		c-1.7,1.1-4,2-6.7,2.8c-2.7,0.7-5.4,1.3-8.1,1.6l-8.6,1.1c-5.2,0.7-9,1.8-11.6,3.2c-4.4,2.5-6.6,6.4-6.6,11.8
		C1138.1,441.9,1139.6,445.1,1142.6,447.5z"/>
	<path class="st4" d="M1221.2,375.6h13.5v12c4-5,8.3-8.5,12.7-10.7c4.5-2.2,9.5-3.2,15-3.2c12,0,20.1,4.2,24.4,12.6
		c2.3,4.6,3.5,11.2,3.5,19.7v54.4h-14.5v-53.4c0-5.2-0.8-9.3-2.3-12.5c-2.5-5.3-7.1-7.9-13.8-7.9c-3.4,0-6.1,0.3-8.3,1
		c-3.9,1.2-7.3,3.5-10.3,7c-2.4,2.8-3.9,5.7-4.6,8.7c-0.7,3-1.1,7.2-1.1,12.8v44.4h-14.2V375.6z"/>
	<path class="st4" d="M1361.7,378.2c2.5,1.6,5.4,4.4,8.6,8.3v-42.8h13.7v116.6h-12.8v-11.8c-3.3,5.2-7.2,9-11.7,11.3
		c-4.5,2.3-9.7,3.5-15.5,3.5c-9.4,0-17.6-4-24.4-11.9c-6.9-7.9-10.3-18.5-10.3-31.7c0-12.3,3.1-23,9.4-32.1
		c6.3-9,15.3-13.6,26.9-13.6C1352,374.1,1357.4,375.4,1361.7,378.2z M1330,441.7c3.8,6.1,10,9.2,18.4,9.2c6.6,0,12-2.8,16.2-8.5
		c4.2-5.7,6.3-13.8,6.3-24.4c0-10.7-2.2-18.6-6.5-23.8c-4.4-5.1-9.7-7.7-16.1-7.7c-7.1,0-12.9,2.7-17.4,8.2
		c-4.4,5.5-6.7,13.6-6.7,24.2C1324.2,428,1326.1,435.6,1330,441.7z"/>
	<path class="st4" d="M1541.7,344.1v13.8h-39.2v102.4h-15.9V357.9h-39.2v-13.8H1541.7z"/>
	<path class="st4" d="M1577,344.1v71.8c0,8.4,1.6,15.5,4.8,21c4.7,8.4,12.7,12.7,23.9,12.7c13.5,0,22.6-4.6,27.4-13.7
		c2.6-5,3.9-11.6,3.9-20v-71.8h15.9v65.3c0,14.3-1.9,25.3-5.8,33c-7.1,14-20.5,21-40.2,21c-19.7,0-33.1-7-40.1-21
		c-3.9-7.7-5.8-18.7-5.8-33v-65.3H1577z"/>
	<path class="st4" d="M1680.5,344.1h50.3c13.7,0,23.4,4.1,29.2,12.2c3.4,4.8,5.1,10.3,5.1,16.6c0,7.3-2.1,13.3-6.3,18
		c-2.2,2.5-5.3,4.7-9.3,6.8c6,2.3,10.4,4.8,13.4,7.7c5.2,5.1,7.8,12.1,7.8,21c0,7.5-2.4,14.3-7.1,20.3c-7.1,9.1-18.3,13.6-33.7,13.6
		h-49.4V344.1z M1724.9,393.2c6.7,0,11.9-0.9,15.7-2.8c5.9-2.9,8.8-8.1,8.8-15.7c0-7.6-3.1-12.7-9.4-15.3c-3.5-1.5-8.7-2.2-15.7-2.2
		H1696v36H1724.9z M1730.2,446.9c9.7,0,16.7-2.8,20.8-8.4c2.6-3.5,3.9-7.8,3.9-12.8c0-8.4-3.8-14.2-11.4-17.2
		c-4-1.6-9.4-2.5-16.1-2.5H1696v40.9H1730.2z"/>
</g>
</svg>
