<svg width="420" height="198" viewBox="0 0 420 198" fill="none" xmlns="http://www.w3.org/2000/svg">
<path d="M340.136 29.3445L322.657 81.3745H300.978L283.499 29.3445H303.146L311.546 63.7602H312.088L320.489 29.3445H340.136Z" fill="#2C2E36"/>
<path d="M358.648 82.1875C355.328 82.1875 352.393 81.6455 349.841 80.5616C347.312 79.455 345.324 77.7839 343.879 75.5483C342.434 73.3126 341.711 70.4672 341.711 67.0121C341.711 64.1667 342.197 61.7391 343.168 59.7292C344.139 57.6968 345.494 56.037 347.232 54.7498C348.971 53.4626 350.992 52.4802 353.296 51.8028C355.622 51.1253 358.129 50.6849 360.816 50.4817C363.729 50.2559 366.066 49.9849 367.828 49.6687C369.612 49.33 370.899 48.867 371.689 48.2799C372.48 47.6702 372.875 46.8685 372.875 45.8749V45.7394C372.875 44.3844 372.355 43.3456 371.317 42.623C370.278 41.9003 368.946 41.539 367.32 41.539C365.536 41.539 364.079 41.9342 362.95 42.7246C361.843 43.4924 361.177 44.678 360.951 46.2814H343.743C343.969 43.1198 344.974 40.2067 346.758 37.5419C348.565 34.8546 351.196 32.7093 354.651 31.1059C358.106 29.48 362.419 28.667 367.591 28.667C371.317 28.667 374.659 29.1074 377.617 29.9881C380.576 30.8462 383.093 32.0544 385.171 33.6126C387.249 35.1482 388.829 36.9548 389.913 39.0324C391.02 41.0874 391.573 43.323 391.573 45.7394V81.3745H374.094V74.0578H373.688C372.649 75.9999 371.384 77.5694 369.894 78.7663C368.426 79.9631 366.744 80.8326 364.847 81.3745C362.972 81.9165 360.906 82.1875 358.648 82.1875ZM364.745 70.3995C366.168 70.3995 367.5 70.1059 368.742 69.5187C370.007 68.9316 371.034 68.0848 371.825 66.9782C372.615 65.8717 373.01 64.528 373.01 62.9472V58.6114C372.514 58.8146 371.983 59.0066 371.418 59.1872C370.876 59.3679 370.289 59.5373 369.657 59.6954C369.047 59.8534 368.392 60.0002 367.692 60.1357C367.015 60.2712 366.303 60.3954 365.558 60.5083C364.113 60.7341 362.927 61.1068 362.001 61.6262C361.098 62.123 360.421 62.744 359.969 63.4892C359.54 64.2119 359.325 65.0248 359.325 65.9281C359.325 67.3734 359.834 68.4799 360.85 69.2477C361.866 70.0156 363.164 70.3995 364.745 70.3995Z" fill="#2C2E36"/>
<path d="M269.039 37.428L237.431 37.428V65.0011M237.431 76.8469V65.0011M237.431 65.0011H258.279" stroke="#2C2E36" stroke-width="16.0517" stroke-linecap="square" stroke-linejoin="round"/>
<path d="M269.039 159.8L237.431 159.8V132.227M237.431 120.381V132.227M237.431 132.227H258.279" stroke="#2C2E36" stroke-width="16.0517" stroke-linecap="square" stroke-linejoin="round"/>
<path d="M269.039 98.6139L237.431 98.6139" stroke="#2C2E36" stroke-width="16.0517" stroke-linecap="square" stroke-linejoin="round"/>
<path d="M340.136 115.311L322.657 167.341H300.978L283.499 115.311H303.146L311.546 149.727H312.088L320.489 115.311H340.136Z" fill="#2C2E36"/>
<path d="M358.648 168.154C355.328 168.154 352.393 167.612 349.841 166.528C347.312 165.421 345.324 163.75 343.879 161.515C342.434 159.279 341.711 156.434 341.711 152.978C341.711 150.133 342.197 147.705 343.168 145.696C344.139 143.663 345.494 142.003 347.232 140.716C348.971 139.429 350.992 138.447 353.296 137.769C355.622 137.092 358.129 136.651 360.816 136.448C363.729 136.222 366.066 135.951 367.828 135.635C369.612 135.296 370.899 134.833 371.689 134.246C372.48 133.637 372.875 132.835 372.875 131.841V131.706C372.875 130.351 372.355 129.312 371.317 128.589C370.278 127.867 368.946 127.505 367.32 127.505C365.536 127.505 364.079 127.901 362.95 128.691C361.843 129.459 361.177 130.644 360.951 132.248H343.743C343.969 129.086 344.974 126.173 346.758 123.508C348.565 120.821 351.196 118.676 354.651 117.072C358.106 115.446 362.419 114.633 367.591 114.633C371.317 114.633 374.659 115.074 377.617 115.954C380.576 116.813 383.093 118.021 385.171 119.579C387.249 121.115 388.829 122.921 389.913 124.999C391.02 127.054 391.573 129.289 391.573 131.706V167.341H374.094V160.024H373.688C372.649 161.966 371.384 163.536 369.894 164.733C368.426 165.93 366.744 166.799 364.847 167.341C362.972 167.883 360.906 168.154 358.648 168.154ZM364.745 156.366C366.168 156.366 367.5 156.072 368.742 155.485C370.007 154.898 371.034 154.051 371.825 152.945C372.615 151.838 373.01 150.494 373.01 148.914V144.578C372.514 144.781 371.983 144.973 371.418 145.154C370.876 145.334 370.289 145.504 369.657 145.662C369.047 145.82 368.392 145.967 367.692 146.102C367.015 146.238 366.303 146.362 365.558 146.475C364.113 146.701 362.927 147.073 362.001 147.593C361.098 148.089 360.421 148.71 359.969 149.456C359.54 150.178 359.325 150.991 359.325 151.895C359.325 153.34 359.834 154.446 360.85 155.214C361.866 155.982 363.164 156.366 364.745 156.366Z" fill="#2C2E36"/>
<rect x="400.519" y="29.4044" width="18.7123" height="137.937" fill="#2C2E36"/>
<g clip-path="url(#clip0_2001_16)">
<rect width="197.228" height="197.228" fill="#92D4F3"/>
<path d="M47.5696 151.128L-21.7318 190.301L57.5396 225.702L87.5678 198.79C89.21 197.318 91.472 196.825 93.669 197.015C111.858 198.585 128.675 177.47 123.652 148.772C123.22 146.306 123.87 143.711 125.721 142.025C132.894 135.49 139.969 132.208 151.787 127.732C155.941 126.158 158.378 121.827 157.5 117.472C156.579 112.907 152.33 109.78 147.71 110.372C122.925 113.548 101.975 118.918 83.8911 130.969C82.4527 131.928 80.4886 131.496 79.5975 130.015C73.8703 120.496 68.2696 114.028 59.2618 108.066C56.4268 106.19 52.8446 105.95 49.6675 107.16C42.5605 109.867 40.346 118.543 43.9797 125.224C46.7325 130.285 48.8356 135.931 50.7508 143.989C51.4204 146.807 50.0908 149.703 47.5696 151.128Z" fill="#5BACD1"/>
<path d="M136.912 81.7587C136.912 81.7587 97.8703 73.364 74.2249 67.9949M74.2249 67.9949C77.1703 53.8327 71.9559 46.2088 71.9559 46.2088M74.2249 67.9949C71.2795 82.157 61.7455 88.8386 61.7455 88.8386" stroke="#2C2E36" stroke-width="16.0517" stroke-linecap="round" stroke-linejoin="round"/>
</g>
<defs>
<clipPath id="clip0_2001_16">
<rect width="197.228" height="197.228" rx="11.674" fill="white"/>
</clipPath>
</defs>
</svg>
