<svg xmlns="http://www.w3.org/2000/svg" width="791" height="156" viewBox="0 0 791 156" fill="none"><g clip-path="url(#clip0_72_979)"><path d="M417.115 66.534V65.897H380.63V39.676H400.526L403.431 4.043H432.056V39.676H456.426V65.897H432.056V112.515C432.056 127.751 434.961 129.545 447.257 129.545C449.941 129.545 452.406 129.324 458.216 128.648V153.53C451.731 155.103 443.91 156 438.982 156C411.706 156 399.177 148.603 399.177 121.485V84.5C399.177 74.568 407.205 66.521 417.115 66.521V66.534ZM153.188 37.661C143.124 37.661 136.509 44.837 132.034 61.191H130.154V39.897H99.5186V153.764H132.398V109.161C132.398 81.146 141.567 71.058 157.884 71.058H160.568V38.103C157.663 37.882 155.419 37.661 153.188 37.661ZM329.437 37.661C299.918 37.661 280.917 51.558 280.917 75.543C280.917 91.013 290.307 103.558 308.206 107.822C317.155 110.058 326.986 111.852 338.841 113.425C345.78 114.322 349.8 117.013 349.8 122.837C349.8 129.779 340.19 133.601 329.684 133.601C316.493 133.601 306.429 128.219 304.859 118.365L276.455 122.395C281.15 143.689 299.036 156.013 328.335 156.013C362.55 156.013 378.879 137.852 378.879 117.689C378.879 97.526 370.15 84.071 335.494 80.483C316.934 78.468 310.67 75.777 310.67 68.835C310.67 62.556 316.934 58.747 327.44 58.747C337.946 58.747 347.116 63.232 349.8 73.983L374.171 67.483C366.35 46.189 351.811 37.674 329.45 37.674L329.437 37.661ZM637.98 0V153.764H670.859V0H637.98ZM736.876 37.661C704.451 37.661 682.532 63.206 682.532 98.397C682.532 133.588 705.113 156 738.666 156C756.772 156 772.207 148.148 781.817 134.927C786.733 128.206 789.651 122.148 790.313 116.779L759.898 114.543C759.898 124.631 750.287 132.47 739.769 132.47C725.683 132.47 717.849 121.94 717.849 108.264C717.849 106.249 718.07 104.455 718.07 102.44H790.974V99.073C790.974 57.603 766.37 37.661 736.863 37.661H736.876ZM717.875 82.927C719.445 66.118 727.486 59.163 738.9 59.163C750.313 59.163 757.239 66.781 758.134 82.927H717.875ZM173.305 39.897V117.182C173.305 121.212 173.149 156 221.605 156C270.061 156 269.905 120.601 269.905 117.182C269.905 113.763 269.905 39.897 269.905 39.897H237.039V114.465C237.039 119.613 236.676 132.275 221.605 132.275C206.534 132.275 206.171 119.977 206.171 114.465C206.171 108.953 206.171 39.897 206.171 39.897H173.292H173.305ZM626.8 96.824C626.8 132.912 610.471 156 580.731 156C564.856 156 556.801 150.397 548.306 136.279H546.464L544.765 153.764H523.027V0H555.893V54.236H557.735C563.325 42.809 571.768 37.648 584.518 37.648C612.922 37.648 626.787 63.193 626.787 96.824H626.8ZM592.585 94.367C592.585 64.558 582.741 60.294 574.246 60.294C562.625 60.294 556.36 70.824 556.36 88.764V107.809C556.36 126.412 564.855 132.912 574.025 132.912C578.5 132.912 585.205 131.794 589.226 122.382C591.69 116.558 592.585 111.176 592.585 94.367ZM0 0V30.485H69.3764V31.122H68.3777C52.1004 31.122 38.9099 44.343 38.9099 60.658V153.764H74.6941V30.485H113.163V0H0ZM472.457 0V29.575H505.336V0H472.457ZM472.457 39.884V153.751H505.336V39.884H472.457Z" fill="white"></path></g><defs><clipPath id="clip0_72_979"><rect width="791" height="156" fill="white"></rect></clipPath></defs></svg>